<svg width="200" height="227" version="1.1" xmlns="http://www.w3.org/2000/svg" desc="Created with imagetracer.js version 1.2.6" ><path fill="rgb(137,104,50)" stroke="rgb(137,104,50)" stroke-width="1" opacity="0.9294117647058824" d="M 183.5 0 Q 196.8 -2.3 200 5.5 L 200 12.5 L 176 80 L 148 67.5 L 149 62.5 L 183.5 0 Z " /><path fill="rgb(137,104,50)" stroke="rgb(137,104,50)" stroke-width="1" opacity="0.9294117647058824" d="M 121.5 74 Q 132.4 72.6 139.5 75 L 176.5 92 L 185 99.5 L 190 110.5 L 190 121.5 L 188 128 L 153.5 114 L 103 90.5 Q 105.6 83.1 111.5 79 L 121.5 74 Z " /><path fill="rgb(137,104,50)" stroke="rgb(137,104,50)" stroke-width="1" opacity="0.9294117647058824" d="M 96.5 103 Q 106.3 105.7 113 111.5 Q 105.5 127 92.5 137 L 67.5 152 L 50.5 158 L 29 162.5 L 49.5 179 L 68.5 171 L 75 166 L 74 170.5 L 62 186.5 L 75.5 194 L 83.5 196 Q 107.7 188.7 122.5 172 L 123 175.5 Q 116.2 191.2 106 203.5 Q 115.9 207.6 129.5 208 L 133 204.5 L 143 187.5 L 152 169.5 L 163 139.5 L 165.5 136 L 182 141 L 182 145.5 L 169 178.5 Q 157.3 204.8 140.5 226 L 138.5 227 L 122.5 227 Q 47.9 214.1 7 167.5 L 0 158.5 L 0 150.5 L 3.5 146 L 19.5 144 L 21.5 144 L 36.5 142 L 58.5 135 Q 78.3 126.8 91 111.5 L 96.5 103 Z " /><path fill="rgb(0,0,0)" stroke="rgb(0,0,0)" stroke-width="1" opacity="0" d="M 0 0 L 183 0.5 L 149 62.5 L 148 67.5 L 176 80 L 199.5 13 L 200 227 L 139 226.5 L 143 223.5 Q 157.8 202.8 169 178.5 L 182 145.5 L 182 141 L 165.5 136 L 163 139.5 L 161 147.5 L 151 171.5 Q 142.3 191.8 129.5 208 Q 115.9 207.6 106 203.5 L 122 178.5 L 123 172.5 L 119.5 175 L 97.5 191 L 88.5 195 L 82.5 196 L 75.5 194 L 62 186.5 L 74 170.5 L 75 166 L 68.5 171 L 49.5 179 L 29 162.5 Q 78.7 155.2 105 124.5 L 113 111.5 Q 106.3 105.7 96.5 103 Q 90.4 114.4 80.5 122 L 58.5 135 L 40.5 141 L 20.5 145 L 18.5 144 L 17.5 145 L 6.5 145 L 1 148.5 L 0.5 150 L 0 0 Z M 122 74 L 112 79 Q 106 83 103 91 L 154 114 L 188 128 L 190 122 L 190 111 L 185 100 L 177 92 L 140 75 Q 132 73 122 74 Z " /><path fill="rgb(0,0,0)" stroke="rgb(0,0,0)" stroke-width="1" opacity="0" d="M 194.5 0 Q 202.3 -2.7 200 4.5 L 195.5 1 L 194.5 0 Z " /><path fill="rgb(0,0,0)" stroke="rgb(0,0,0)" stroke-width="1" opacity="0" d="M 0.5 159 L 20.5 181 Q 58.7 216.3 122 226.5 L 0 227 L 0.5 159 Z " /></svg>